<?xml version="1.0" standalone="no"?>
<!DOCTYPE svg PUBLIC "-//W3C//DTD SVG 20010904//EN"
 "http://www.w3.org/TR/2001/REC-SVG-20010904/DTD/svg10.dtd">
<svg version="1.0" xmlns="http://www.w3.org/2000/svg"
 width="256.000000pt" height="256.000000pt" viewBox="0 0 256.000000 256.000000"
 preserveAspectRatio="xMidYMid meet">

<g transform="translate(0.000000,256.000000) scale(0.100000,-0.100000)"
fill="#000000" stroke="none">
<path d="M1172 2010 c-75 -11 -236 -66 -314 -107 -142 -74 -274 -231 -324
-386 -35 -109 -44 -263 -20 -369 20 -91 73 -204 129 -277 60 -79 225 -213 251
-205 17 4 18 3 6 -5 -12 -8 1 -17 60 -45 118 -54 189 -70 320 -70 90 0 133 5
195 22 256 73 449 270 521 532 24 88 24 270 0 360 -41 152 -128 288 -244 385
-76 63 -199 127 -289 149 -76 20 -220 28 -291 16z m204 -11 c325 -45 574 -294
624 -624 42 -279 -102 -574 -355 -723 -159 -93 -359 -124 -530 -81 -59 15
-194 70 -202 82 -4 7 0 8 13 2 40 -17 202 -56 277 -65 433 -57 822 333 768
770 -21 166 -82 291 -201 410 -85 85 -156 130 -259 166 -65 23 -242 52 -335
56 l-41 1 50 7 c79 11 108 11 191 -1z m-247 -39 c-296 -72 -500 -298 -540
-599 -33 -246 90 -517 296 -653 36 -23 63 -44 60 -46 -2 -2 -35 13 -74 33 -44
23 -91 59 -128 98 -32 34 -61 61 -65 59 -13 -4 -69 80 -105 156 -108 231 -78
498 80 707 61 80 186 183 207 170 6 -3 23 3 39 14 66 47 172 78 266 79 33 0
28 -3 -36 -18z m310 -30 c29 -11 57 -18 62 -15 5 4 46 -13 91 -36 114 -59 228
-173 285 -284 58 -112 76 -189 76 -315 0 -192 -61 -338 -198 -475 -121 -122
-257 -185 -425 -199 l-65 -6 71 19 c150 37 303 132 389 239 258 321 185 789
-160 1018 -30 20 -58 35 -60 32 -3 -3 21 -21 53 -41 76 -47 180 -158 225 -239
62 -111 82 -195 82 -338 -1 -113 -4 -133 -31 -211 -92 -260 -316 -434 -595
-463 -125 -13 -297 56 -417 168 -365 342 -257 930 208 1126 125 52 305 61 409
20z"/>
<path d="M807 1845 c-102 -78 -206 -242 -241 -382 -35 -137 -30 -281 15 -417
22 -65 88 -191 96 -183 2 3 -8 25 -23 48 -42 67 -82 189 -95 288 -29 224 58
454 233 615 39 36 68 66 66 66 -3 0 -26 -16 -51 -35z"/>
<path d="M835 1338 c-21 -57 -40 -109 -42 -115 -4 -9 5 -13 26 -13 24 0 31 4
31 20 0 17 7 20 49 20 41 0 51 -4 56 -20 4 -14 15 -20 35 -20 l28 0 -35 98
c-19 53 -38 105 -40 115 -4 12 -15 17 -38 17 -32 0 -33 -1 -70 -102z m72 -46
c-16 -2 -31 -2 -33 1 -4 3 5 36 23 87 3 9 12 -5 23 -35 l17 -50 -30 -3z"/>
<path d="M1040 1349 c0 -87 1 -92 29 -120 39 -39 106 -41 148 -5 27 23 28 29
31 121 l4 97 -29 -4 -28 -3 -3 -85 c-2 -65 -6 -88 -19 -97 -24 -18 -40 -16
-63 7 -17 17 -20 33 -20 100 0 79 0 80 -25 80 -25 0 -25 -1 -25 -91z"/>
<path d="M1287 1434 c-4 -4 -7 -56 -7 -116 l0 -108 85 0 c78 0 85 2 85 20 0
18 -7 20 -61 20 -60 0 -60 0 -57 28 3 25 7 27 51 30 32 2 47 8 47 17 0 9 -15
15 -47 17 -44 3 -48 5 -48 28 0 24 3 25 55 26 47 1 55 4 55 20 0 17 -9 19 -75
22 -42 1 -79 0 -83 -4z"/>
<path d="M1480 1325 l0 -115 25 0 c23 0 25 4 25 40 0 38 2 40 29 40 25 0 31
-6 41 -34 6 -19 17 -40 25 -46 19 -16 65 -4 65 16 0 9 -6 14 -12 11 -7 -2 -21
12 -30 31 -17 34 -17 35 7 54 42 33 29 88 -26 107 -18 6 -58 11 -90 11 l-59 0
0 -115z m134 59 c27 -26 4 -54 -44 -54 -39 0 -40 1 -40 35 0 33 2 35 34 35 19
0 42 -7 50 -16z"/>
<path d="M1723 1253 c-19 -7 -16 -40 4 -47 9 -4 23 0 31 8 13 12 13 18 2 30
-13 17 -17 18 -37 9z"/>
</g>
</svg>
